<svg xmlns="http://www.w3.org/2000/svg" width="500" height="500" viewBox="0 0 500 500" version="1.1"><circle cx="250" cy="225" r="200" fill="#C4732A"/><path d="M 224.199 115.986 C 222.384 116.416, 220.738 116.933, 220.542 117.134 C 220.345 117.335, 221.114 122.149, 222.250 127.832 L 224.315 138.164 227.907 137.528 C 236.325 136.040, 236.680 135.364, 234.495 124.978 C 232.340 114.731, 231.734 114.202, 224.199 115.986 M 267.937 119.750 C 260.565 135.986, 260.888 135.020, 262.600 135.677 C 264.026 136.224, 265.405 135.093, 266.259 132.675 C 266.900 130.859, 271.807 133.208, 272.253 135.544 C 272.688 137.818, 272.507 137.902, 268.104 137.467 C 263.513 137.015, 263.518 137.019, 269.820 139.063 C 273.296 140.190, 277.697 141.987, 279.600 143.056 C 281.504 144.125, 283.559 145, 284.168 145 C 286.069 145, 299.012 153.983, 303.760 158.597 C 306.252 161.019, 307.930 163, 307.490 163 C 307.050 163, 307.505 163.900, 308.500 165 C 309.495 166.100, 311.279 167, 312.464 167 C 315.260 167, 316.654 168.170, 323.183 176 C 333.776 188.704, 341.874 207.321, 344.145 224.185 C 344.761 228.761, 345.041 238.346, 344.768 245.500 C 344.348 256.495, 343.814 259.826, 341.308 267.096 C 339.678 271.824, 336.640 278.739, 334.557 282.464 C 330.425 289.853, 319.369 302.119, 312.097 307.381 C 302.756 314.140, 276.394 326, 270.709 326 C 268.889 326, 266.838 326.563, 266.150 327.250 C 265.236 328.164, 260.012 328.480, 246.700 328.425 C 225.209 328.337, 219.051 327.026, 201.500 318.806 C 185.645 311.381, 174.837 302.314, 163.587 287 C 157.204 278.312, 157.103 278.312, 161.526 287 C 164.616 293.071, 167.653 296.787, 177.464 306.500 C 190.401 319.308, 195.148 322.344, 209.500 326.984 C 217.755 329.653, 220.472 331.587, 214.500 330.543 C 211.802 330.072, 210.826 330.174, 211.500 330.857 C 212.733 332.106, 226.707 336.033, 229.480 335.911 C 230.591 335.861, 229.442 335.253, 226.927 334.559 C 224.412 333.865, 221.487 332.756, 220.427 332.095 C 218.758 331.054, 218.969 330.960, 222 331.392 C 238.514 333.748, 249.056 334.278, 258 333.201 C 263.225 332.572, 269.563 331.837, 272.084 331.567 C 274.606 331.297, 277.981 330.561, 279.584 329.932 C 281.188 329.302, 284.525 328.588, 287 328.344 C 289.475 328.100, 291.652 327.468, 291.837 326.938 C 292.023 326.409, 294.723 324.794, 297.837 323.348 C 300.952 321.903, 304.511 319.807, 305.746 318.690 C 308.230 316.444, 310.022 317.064, 308.020 319.476 C 306.965 320.747, 307.059 321, 308.589 321 C 311.140 321, 322.682 308.939, 328.315 300.387 C 330.892 296.475, 333 292.994, 333 292.652 C 333 292.310, 334.337 289.858, 335.970 287.203 C 340.538 279.779, 347.021 263.393, 348.548 255.412 C 350.719 244.064, 351.438 228.253, 350.067 221.981 C 349.408 218.966, 348.688 214.675, 348.467 212.444 C 347.297 200.634, 335.983 179.705, 323.451 166.170 C 319.764 162.188, 317.156 158.557, 317.538 157.938 C 317.916 157.327, 316.777 155.624, 314.994 154.136 C 312.091 151.713, 311.928 151.305, 313.377 150.102 C 314.734 148.976, 315.374 149.015, 317.403 150.345 C 319.587 151.775, 319.940 151.778, 321.109 150.369 C 322.195 149.060, 322.043 148.541, 320.152 147.115 C 318.665 145.993, 318.125 144.838, 318.558 143.709 C 319.423 141.454, 320.476 141.552, 324.092 144.226 C 326.661 146.126, 327.239 146.236, 328.036 144.976 C 328.549 144.164, 328.962 143.275, 328.954 143 C 328.934 142.365, 320.512 136, 319.691 136 C 319.354 136, 316.330 139.546, 312.971 143.879 L 306.863 151.759 303.026 149.657 C 299.999 147.999, 299.066 146.811, 298.606 144.028 C 297.384 136.643, 297.775 135.426, 302.653 131.428 C 307.092 127.791, 307.206 127.571, 305.137 126.648 C 303.412 125.878, 302.462 126.157, 300.484 128.015 L 298 130.349 298 127.374 C 298 124.322, 296.474 122, 294.468 122 C 293.710 122, 293.483 123.779, 293.782 127.382 L 294.228 132.763 288.829 136.839 C 283.571 140.809, 283.326 140.884, 279.465 139.708 L 275.500 138.500 275.500 127.713 C 275.500 119.213, 275.182 116.725, 274 115.978 C 271.258 114.246, 270.112 114.959, 267.937 119.750 M 225.485 122.250 C 225.773 123.487, 226.364 126.298, 226.798 128.495 C 227.333 131.201, 228.184 132.604, 229.436 132.845 C 231.107 133.167, 231.219 132.712, 230.606 128.089 C 229.697 121.235, 229.127 120, 226.874 120 C 225.403 120, 225.083 120.519, 225.485 122.250 M 269.975 124.565 C 268.639 128.081, 268.747 129, 270.500 129 C 271.548 129, 272 127.944, 272 125.500 C 272 121.353, 271.317 121.037, 269.975 124.565 M 198.757 125.250 C 197.264 126.399, 197.301 127.330, 199.216 136.794 C 200.890 145.066, 201.614 147.023, 202.900 146.755 C 203.938 146.539, 204.437 145.496, 204.322 143.784 C 204.180 141.683, 204.750 140.934, 207.117 140.109 C 209.490 139.282, 210.204 139.368, 210.652 140.536 C 211.308 142.246, 215 142.532, 215 140.873 C 215 139.320, 202.752 124.130, 201.441 124.058 C 200.859 124.026, 199.651 124.563, 198.757 125.250 M 202.341 132 C 202.688 133.375, 202.979 135.063, 202.986 135.750 C 202.994 136.438, 203.675 137, 204.500 137 C 206.599 137, 206.369 135.272, 203.854 132.158 L 201.709 129.500 202.341 132 M 174.571 140.252 L 170.808 143.505 176.013 150.002 C 178.875 153.576, 181.834 157.374, 182.587 158.442 C 183.918 160.328, 184.066 160.297, 187.729 157.340 C 192.632 153.382, 192.963 150.809, 189.070 146.917 C 187.382 145.228, 186 143.496, 186 143.069 C 186 141.692, 181.141 137, 179.714 137 C 178.955 137, 176.640 138.464, 174.571 140.252 M 291.158 140.332 L 288.967 142.664 291.484 143.811 C 293.910 144.916, 294 144.832, 294 141.479 C 294 139.565, 293.853 138, 293.674 138 C 293.495 138, 292.363 139.049, 291.158 140.332 M 177.364 143.493 C 177.018 144.396, 177.214 145.614, 177.800 146.200 C 179.324 147.724, 182.210 146.331, 181.812 144.265 C 181.369 141.963, 178.165 141.407, 177.364 143.493 M 183 149.979 C 181.684 150.811, 181.709 151.137, 183.200 152.628 C 184.612 154.040, 185.164 154.108, 186.462 153.031 C 187.653 152.043, 187.755 151.409, 186.890 150.367 C 185.557 148.761, 185.013 148.706, 183 149.979 M 214.519 164.941 C 214.159 166.074, 213.333 167.032, 212.683 167.072 C 212.032 167.112, 210.213 168.693, 208.639 170.586 C 206.408 173.271, 206.030 174.331, 206.922 175.405 C 207.832 176.503, 206.787 177.923, 201.782 182.391 C 198.327 185.476, 193.139 189.237, 190.252 190.750 C 187.366 192.262, 185.004 193.729, 185.002 194.008 C 184.998 194.912, 197.366 202.867, 202 204.942 C 204.475 206.050, 205.825 206.956, 205 206.956 C 204.175 206.956, 201.520 206.058, 199.101 204.960 C 196.682 203.863, 194.473 203.193, 194.193 203.473 C 193.301 204.366, 206.279 209.727, 212.369 210.982 C 215.638 211.655, 220.219 211.894, 222.709 211.521 C 226.801 210.907, 227.129 210.649, 226.582 208.469 C 224.892 201.735, 224.239 201, 219.948 201 C 216.712 201, 215.205 200.358, 212.806 197.960 C 210.250 195.404, 209.868 194.409, 210.407 191.710 C 210.760 189.944, 212.163 187.385, 213.524 186.023 L 216 183.545 219.611 185.490 C 221.597 186.560, 228.235 192.240, 234.361 198.113 L 245.500 208.792 231.313 223.222 C 223.252 231.421, 216.840 238.788, 216.465 240.283 C 215.727 243.222, 217.044 248.181, 218.708 248.736 C 219.304 248.935, 222.636 245.588, 226.112 241.299 C 237.365 227.413, 249.256 213.917, 249.976 214.212 C 251.137 214.688, 261.649 226.772, 271.354 238.788 C 279.475 248.843, 280.609 249.887, 281.736 248.347 C 282.431 247.396, 283 244.811, 283 242.602 C 283 238.777, 282.332 237.912, 269 224.465 C 261.300 216.699, 255 209.760, 255 209.044 C 255 206.476, 279.898 184, 282.742 184 C 283.487 184, 285.199 185.191, 286.548 186.646 C 288.934 189.221, 289.661 193.114, 288.379 196.455 C 287.525 198.681, 282.738 201, 278.999 201 C 276.406 201, 275.661 201.568, 274.449 204.468 C 272.142 209.988, 272.501 210.803, 277.576 211.564 C 283.411 212.439, 293.336 210.087, 301.799 205.824 C 310.206 201.589, 310.736 200.338, 302.550 204.050 C 293.716 208.055, 291.920 207.790, 300.073 203.683 C 306.897 200.246, 314 195.314, 314 194.013 C 314 193.601, 311.188 191.603, 307.750 189.573 C 304.313 187.543, 299.307 183.958, 296.626 181.607 C 292.327 177.836, 291.884 177.086, 292.869 175.245 C 293.850 173.412, 293.439 172.676, 289.493 169.203 C 287.022 167.028, 285 164.731, 285 164.098 C 285 162.597, 280.626 164.882, 276.233 168.677 C 273.096 171.388, 273.010 171.655, 274.073 175.405 L 275.180 179.310 262.595 191.896 L 250.010 204.481 237.064 191.564 C 226.399 180.923, 224.284 178.337, 225.059 176.889 C 227.227 172.840, 225.063 169.151, 217.836 164.571 C 215.278 162.950, 215.146 162.965, 214.519 164.941 M 294.980 223.524 C 294.284 224.362, 294.029 225.362, 294.412 225.745 C 294.795 226.128, 295.478 225.845, 295.929 225.114 C 296.547 224.114, 296.931 224.079, 297.483 224.973 C 297.911 225.664, 297.336 226.777, 296.108 227.637 C 294.949 228.449, 294 229.988, 294 231.057 C 294 232.561, 294.697 233, 297.083 233 C 299.116 233, 300.018 232.574, 299.730 231.750 C 299.489 231.063, 298.439 230.625, 297.396 230.778 C 295.703 231.025, 295.740 230.848, 297.750 229.117 C 300.255 226.960, 300.603 225.003, 298.800 223.200 C 297.225 221.625, 296.505 221.686, 294.980 223.524 M 303.058 223.430 C 301.179 225.694, 302.123 232.412, 304.380 232.840 C 305.414 233.036, 306.645 232.590, 307.115 231.848 C 308.374 229.861, 308.182 224.582, 306.800 223.200 C 305.242 221.642, 304.505 221.687, 303.058 223.430 M 310.980 223.524 C 310.284 224.362, 310.029 225.362, 310.412 225.745 C 310.795 226.128, 311.478 225.845, 311.929 225.114 C 312.547 224.114, 312.931 224.079, 313.483 224.973 C 313.911 225.664, 313.336 226.777, 312.108 227.637 C 310.949 228.449, 310 229.988, 310 231.057 C 310 232.561, 310.697 233, 313.083 233 C 315.116 233, 316.018 232.574, 315.730 231.750 C 315.489 231.063, 314.439 230.625, 313.396 230.778 C 311.703 231.025, 311.740 230.848, 313.750 229.117 C 316.255 226.960, 316.603 225.003, 314.800 223.200 C 313.225 221.625, 312.505 221.686, 310.980 223.524 M 320.191 225.191 C 317.499 229.547, 317.481 230, 320 230 C 321.111 230, 322 230.667, 322 231.500 C 322 233.743, 323.686 233.309, 324.315 230.904 C 325.143 227.737, 324.097 225.675, 322.383 227.097 C 320.741 228.460, 320.506 226.894, 322.113 225.288 C 322.724 224.676, 323.035 223.606, 322.803 222.910 C 322.564 222.192, 321.437 223.176, 320.191 225.191 M 304 227.500 C 304 229.425, 304.450 231, 305 231 C 305.550 231, 306 229.425, 306 227.500 C 306 225.575, 305.550 224, 305 224 C 304.450 224, 304 225.575, 304 227.500 M 177 229.500 C 177 233.633, 177.204 234, 179.500 234 C 182.607 234, 182.847 232.022, 179.750 231.941 C 177.751 231.889, 177.687 231.756, 179.173 230.745 C 180.737 229.682, 180.737 229.525, 179.173 228.336 C 177.611 227.148, 177.612 227.061, 179.191 227.032 C 181.990 226.979, 182.349 225, 179.559 225 C 177.193 225, 177 225.339, 177 229.500 M 185 227.430 C 185 229.048, 185.556 230, 186.500 230 C 187.325 230, 188 230.498, 188 231.107 C 188 231.716, 187.325 231.955, 186.500 231.638 C 185.567 231.280, 185 231.645, 185 232.601 C 185 233.624, 185.753 234.032, 187.250 233.820 C 190.407 233.371, 190.763 229.691, 187.797 228.168 L 185.500 226.989 187.868 227.600 C 189.592 228.044, 190.115 227.841, 189.790 226.855 C 189.544 226.110, 188.366 225.356, 187.172 225.180 C 185.423 224.923, 185 225.362, 185 227.430 M 192.800 226.200 C 193.460 226.860, 194 228.885, 194 230.700 C 194 232.515, 194.450 234, 195 234 C 195.550 234, 196 232.515, 196 230.700 C 196 228.885, 196.540 226.860, 197.200 226.200 C 198.133 225.267, 197.644 225, 195 225 C 192.356 225, 191.867 225.267, 192.800 226.200 M 200 229.500 C 200 233.633, 200.204 234, 202.500 234 C 204.796 234, 205 233.633, 205 229.500 C 205 225.367, 204.796 225, 202.500 225 C 200.204 225, 200 225.367, 200 229.500 M 202 229.559 C 202 231.010, 202.433 231.851, 203 231.500 C 203.550 231.160, 204 230.009, 204 228.941 C 204 227.873, 203.550 227, 203 227 C 202.450 227, 202 228.152, 202 229.559 M 169.500 267 C 169.500 276.333, 169.633 277, 171.500 277.002 C 173.315 277.003, 173.469 276.450, 173.162 271.009 L 172.823 265.015 175.790 265.608 C 179.443 266.339, 181.122 264.320, 177.598 263.435 C 176.231 263.092, 174.638 263.106, 174.057 263.465 C 173.414 263.862, 173 263.063, 173 261.428 C 173 258.924, 173.236 258.777, 176.422 259.294 C 178.853 259.688, 180.002 259.437, 180.391 258.424 C 180.824 257.294, 179.756 257, 175.219 257 L 169.500 257 169.500 267 M 187.934 267 C 185.546 276.371, 185.500 277, 187.193 277 C 188.454 277, 189 276.244, 189 274.500 C 189 272.409, 189.474 272, 191.893 272 C 194.731 272, 196.624 274.181, 195.444 276.090 C 195.135 276.591, 196.082 277, 197.548 277 C 199.685 277, 200.076 276.653, 199.519 275.250 C 199.137 274.288, 197.856 269.788, 196.671 265.250 C 194.871 258.356, 194.185 257, 192.500 257 C 190.782 257, 190.105 258.481, 187.934 267 M 204.500 267 C 204.500 276.333, 204.633 277, 206.500 277.002 C 208.320 277.003, 208.469 276.452, 208.155 270.884 C 207.896 266.291, 208.112 264.951, 209.019 265.511 C 210.714 266.559, 214.232 274.815, 213.493 276.012 C 213.151 276.564, 214.010 277, 215.441 277 C 218.575 277, 218.577 276.938, 215.565 270.942 C 213.272 266.377, 213.236 266.060, 214.957 265.514 C 217.427 264.730, 218.098 261.585, 216.333 259.065 C 215.187 257.429, 213.807 257, 209.693 257 L 204.500 257 204.500 267 M 224 265.418 C 224 270.048, 223.727 274.548, 223.393 275.418 C 222.964 276.536, 223.374 277, 224.790 277 C 226.334 277, 226.773 276.368, 226.698 274.250 C 226.644 272.738, 226.711 269.475, 226.846 267 L 227.090 262.500 229.448 267 L 231.806 271.500 233.512 267.250 C 236.026 260.983, 237.213 261.967, 236.832 270.002 C 236.510 276.786, 236.574 277.004, 238.857 277.002 C 240.595 277.001, 241.055 276.585, 240.607 275.418 C 240.273 274.548, 240 270.048, 240 265.418 C 240 257.644, 239.846 257, 237.984 257 C 236.664 257, 235.391 258.209, 234.299 260.500 C 233.381 262.425, 232.353 264, 232.016 264 C 231.678 264, 230.832 262.425, 230.136 260.500 C 229.161 257.805, 228.311 257, 226.435 257 C 224.048 257, 224 257.165, 224 265.418 M 248.571 258.571 C 245.949 261.194, 246.773 263.600, 251.721 267.777 C 255.841 271.255, 256.271 271.968, 255.099 273.381 C 253.288 275.563, 251.279 275.420, 249.768 273 C 248.216 270.515, 247 270.427, 247 272.800 C 247 277.561, 254.789 278.778, 257.619 274.459 C 259.723 271.248, 258.448 267.968, 254.096 265.398 C 250.932 263.529, 249.598 261.460, 250.556 259.910 C 251.355 258.616, 254.384 258.784, 255.800 260.200 C 256.733 261.133, 257 260.911, 257 259.200 C 257 257.361, 256.437 257, 253.571 257 C 251.686 257, 249.436 257.707, 248.571 258.571 M 264 259.200 C 264 260.911, 264.267 261.133, 265.200 260.200 C 267.645 257.755, 268.134 259.213, 267.821 268.002 C 267.516 276.544, 267.606 277.004, 269.571 277.002 C 271.535 277, 271.619 276.569, 271.202 268.632 C 270.746 259.930, 271.641 257.627, 274.544 260.036 C 275.741 261.030, 276 260.867, 276 259.122 C 276 257.195, 275.449 257, 270 257 C 264.485 257, 264 257.178, 264 259.200 M 281.500 267.042 L 281.500 277.085 286.990 276.792 C 291.384 276.558, 292.550 276.134, 292.830 274.667 C 293.126 273.112, 292.871 272.999, 291.155 273.917 C 290.042 274.513, 288.202 275, 287.066 275 C 285.253 275, 285 274.386, 285 269.996 C 285 264.999, 285.004 264.993, 288.141 265.246 C 290.091 265.404, 291.466 264.979, 291.766 264.126 C 292.134 263.079, 291.387 262.853, 288.625 263.175 C 285.337 263.559, 285 263.373, 285 261.168 C 285 258.960, 285.312 258.789, 288.422 259.294 C 290.853 259.688, 292.002 259.437, 292.391 258.424 C 292.824 257.294, 291.756 257, 287.219 257 L 281.500 257 281.500 267.042 M 299.934 267 C 297.546 276.371, 297.500 277, 299.193 277 C 300.454 277, 301 276.244, 301 274.500 C 301 272.409, 301.474 272, 303.893 272 C 306.731 272, 308.624 274.181, 307.444 276.090 C 307.135 276.591, 308.082 277, 309.548 277 C 311.685 277, 312.076 276.653, 311.519 275.250 C 311.137 274.288, 309.856 269.788, 308.671 265.250 C 306.871 258.356, 306.185 257, 304.500 257 C 302.782 257, 302.105 258.481, 299.934 267 M 317.500 267 L 317.500 277 320.500 276.985 C 327.836 276.949, 332.355 270.467, 330.158 263.131 C 328.896 258.922, 325.933 257, 320.703 257 L 317.500 257 317.500 267 M 208 259.566 C 208 261.188, 210.262 264, 211.567 264 C 213.629 264, 214.605 260.997, 212.896 259.914 C 211.337 258.927, 208 258.690, 208 259.566 M 321 267 C 321 275.425, 321.630 276.370, 325 273 C 326.910 271.090, 327.440 268.896, 327.055 264.500 C 326.880 262.510, 323.584 259, 321.889 259 C 321.400 259, 321 262.600, 321 267 M 191.825 262.510 C 191.501 263.055, 190.922 264.962, 190.538 266.750 C 189.927 269.598, 190.098 270, 191.921 270 C 194.107 270, 194.385 268.599, 193.108 264.010 C 192.726 262.641, 192.149 261.966, 191.825 262.510 M 303.825 262.510 C 303.501 263.055, 302.922 264.962, 302.538 266.750 C 301.927 269.598, 302.098 270, 303.921 270 C 306.107 270, 306.385 268.599, 305.108 264.010 C 304.726 262.641, 304.149 261.966, 303.825 262.510" stroke="none" fill="#FFFFFF" fill-rule="evenodd"/></svg>